<svg id="Layer_1" viewBox="0 0 24 24" xmlns="http://www.w3.org/2000/svg"><path d="m8 19.49c-.7-.53-1.08-1.38-.99-2.24.02-.15-.1-.28-.25-.28-.96.08-1.77-.32-2.27-.99-.8-1.07-.63-2.65.5-3.5.86-.65 2.1-.66 2.97-.02.17.13.44.1.62-.07l3.82-3.82c.17-.17.2-.44.07-.62-.8-1.1-.57-2.66.52-3.47.87-.66 2.13-.66 3 0 .7.53 1.08 1.38.99 2.24-.02.16.11.28.24.28.96-.09 1.78.33 2.27.99.8 1.07.64 2.64-.5 3.5-.86.65-2.1.66-2.97.02-.18-.13-.45-.09-.62.07l-3.83 3.83c-.17.17-.19.43-.05.62.63.88.62 2.1-.03 2.96-.8 1.07-2.41 1.32-3.5.5z" fill="#ffffb3"/><path d="m7.7 19.89c-.76-.57-1.2-1.45-1.2-2.4-.95 0-1.83-.44-2.4-1.2-.98-1.3-.76-3.18.6-4.2 1.03-.78 2.53-.79 3.57-.02l3.79-3.84c-.89-1.21-.74-3.1.64-4.14 1.04-.79 2.55-.79 3.6 0 .76.57 1.2 1.45 1.2 2.4.95 0 1.83.44 2.4 1.2.98 1.3.75 3.18-.6 4.2-1.03.78-2.53.79-3.57.02l-3.8 3.85c.73.96.79 2.43-.03 3.53-1.02 1.36-2.91 1.57-4.2.6zm-.93-3.42c.43 0 .79.38.74.83-.07.65.2 1.34.79 1.79.86.64 2.16.46 2.8-.4.54-.71.52-1.68.02-2.37-.28-.39-.24-.92.1-1.26l3.83-3.83c.34-.34.89-.4 1.27-.12.69.51 1.69.5 2.38-.02.92-.69 1.04-1.96.4-2.8-.42-.56-1.11-.86-1.79-.79-.45.06-.88-.33-.83-.82.07-.65-.2-1.34-.79-1.79-.7-.52-1.7-.52-2.4 0-.9.67-1.05 1.92-.42 2.78.28.38.22.92-.12 1.27l-3.82 3.82c-.34.35-.89.4-1.27.12-.69-.51-1.69-.5-2.38.02-.92.69-1.04 1.96-.4 2.8.51.67 1.1.79 1.87.79z"/></svg>